<svg xmlns="http://www.w3.org/2000/svg" width="48" height="48" viewBox="0 0 48 48">
  <path fill="#FFF" d="M42.0728808,14.9544795 L35.2996742,14.9544795 L34.3032403,14.9544795 L25.9290302,14.9544795 L33.1825748,2.06175701 C33.557113,1.3959932 33.3210912,0.552637091 32.6553274,0.178006712 C31.9894715,-0.196531507 31.1462075,0.0394902395 30.7715771,0.705254042 L23.5667852,13.511254 L16.3619933,0.705254042 C15.9873629,0.0394902395 15.1440068,-0.196715827 14.478243,0.178006712 C13.8124792,0.552637091 13.5763653,1.3959932 13.9509957,2.06175701 L21.2045402,14.9544795 L4.97378276,14.9544795 C2.23119347,14.9544795 0,17.1857651 0,19.9282622 L0,42.211996 C0,44.9545853 2.23119347,47.1857788 4.97378276,47.1857788 L34.3032403,47.1857788 L35.2996742,47.1857788 L42.0728808,47.1857788 C44.8154701,47.1857788 47.0466636,44.9544932 47.0466636,42.211996 L47.0466636,19.9283544 C47.0466636,17.185673 44.8154701,14.9544795 42.0728808,14.9544795 Z M37.7082756,19.4975064 C39.623729,19.4975064 41.1821545,21.0559319 41.1821545,22.9714774 C41.1821545,24.8869308 39.623729,26.4453563 37.7082756,26.4453563 C35.7927301,26.4453563 34.2343046,24.8869308 34.2343046,22.9714774 C34.2343046,21.0559319 35.7927301,19.4975064 37.7082756,19.4975064 Z M37.7082756,27.6151431 C39.623729,27.6151431 41.1821545,29.1735686 41.1821545,31.0890219 C41.1821545,33.0045674 39.623729,34.5629929 37.7082756,34.5629929 C35.7927301,34.5629929 34.2343046,33.0045674 34.2343046,31.0890219 C34.2343046,29.1734764 35.7927301,27.6151431 37.7082756,27.6151431 Z M31.0279663,38.793321 C31.0279663,40.990231 29.2407075,42.7774898 27.0437975,42.7774898 L8.71501775,42.7774898 C6.51810779,42.7774898 4.73084901,40.990231 4.73084901,38.793321 L4.73084901,23.4918128 C4.73084901,21.2949028 6.51810779,19.507644 8.71501775,19.507644 L27.0437975,19.507644 C29.2407075,19.507644 31.0279663,21.2949028 31.0279663,23.4918128 L31.0279663,38.793321 Z M40.1469213,42.7362021 L35.2695379,42.7362021 C34.5056237,42.7362021 33.8863085,42.1168869 33.8863085,41.3529727 C33.8863085,40.5890585 34.5056237,39.9697434 35.2695379,39.9697434 L40.1469213,39.9697434 C40.9108355,39.9697434 41.5301506,40.5890585 41.5301506,41.3529727 C41.5301506,42.1168869 40.9108355,42.7362021 40.1469213,42.7362021 Z M40.1469213,38.5866061 L35.2695379,38.5866061 C34.5056237,38.5866061 33.8863085,37.967291 33.8863085,37.2033768 C33.8863085,36.4394626 34.5056237,35.8201474 35.2695379,35.8201474 L40.1469213,35.8201474 C40.9108355,35.8201474 41.5301506,36.4394626 41.5301506,37.2033768 C41.5301506,37.967291 40.9108355,38.5866061 40.1469213,38.5866061 Z" transform="translate(.64 .32)"/>
</svg>
